<svg id="Слой_1" data-name="Слой 1" xmlns="http://www.w3.org/2000/svg" viewBox="0 0 15.566 17.248"><defs><style>.cls-1{fill:#5ead65;}</style></defs><path class="cls-1" d="M3.1,10.1c0-2-.013-3.992,0-5.988C3.116,1.863,4.591.979,6.516,2.075q5.466,3.109,10.908,6.261a2.1,2.1,0,0,1,.019,3.8q-5.553,3.2-11.109,6.394a2.087,2.087,0,0,1-3.222-1.819C3.045,14.507,3.1,12.3,3.1,10.1Zm1.815,5.39c-.051,1.171.274,1.718,1.515.993,3.122-1.826,6.273-3.6,9.393-5.431.935-.548.784-1.26-.037-1.742C12.629,7.459,9.447,5.657,6.267,3.853c-1.02-.578-1.359-.075-1.358.916Q4.915,10.129,4.911,15.488Z" transform="translate(-3.077 -1.606)"/></svg>